<mxfile host="app.diagrams.net" modified="2024-02-29T00:45:34.363Z" agent="Mozilla/5.0 (Windows NT 10.0; Win64; x64; rv:123.0) Gecko/20100101 Firefox/123.0" etag="sjQoxpBYFH9q9rL_XaH1" version="23.1.5" type="github">
  <diagram name="Page-1" id="k59Omqp7S_XQz2QBfn44">
    <mxGraphModel dx="794" dy="358" grid="1" gridSize="10" guides="1" tooltips="1" connect="1" arrows="1" fold="1" page="1" pageScale="1" pageWidth="850" pageHeight="1100" math="0" shadow="0">
      <root>
        <mxCell id="0" />
        <mxCell id="1" parent="0" />
        <mxCell id="Vfp6eLegOjYmduUzVoi8-1" value="/Employee" style="whiteSpace=wrap;html=1;aspect=fixed;" vertex="1" parent="1">
          <mxGeometry x="120" y="20" width="70" height="70" as="geometry" />
        </mxCell>
        <mxCell id="Vfp6eLegOjYmduUzVoi8-2" value="/" style="whiteSpace=wrap;html=1;aspect=fixed;" vertex="1" parent="1">
          <mxGeometry x="230" y="20" width="70" height="70" as="geometry" />
        </mxCell>
        <mxCell id="Vfp6eLegOjYmduUzVoi8-5" value="" style="rounded=0;whiteSpace=wrap;html=1;" vertex="1" parent="1">
          <mxGeometry x="150" y="90" width="10" height="440" as="geometry" />
        </mxCell>
        <mxCell id="Vfp6eLegOjYmduUzVoi8-6" value="" style="endArrow=none;dashed=1;html=1;dashPattern=1 3;strokeWidth=2;rounded=0;exitX=0.5;exitY=1;exitDx=0;exitDy=0;" edge="1" parent="1" source="Vfp6eLegOjYmduUzVoi8-2">
          <mxGeometry width="50" height="50" relative="1" as="geometry">
            <mxPoint x="390" y="150" as="sourcePoint" />
            <mxPoint x="265" y="520" as="targetPoint" />
          </mxGeometry>
        </mxCell>
        <mxCell id="Vfp6eLegOjYmduUzVoi8-9" value="" style="whiteSpace=wrap;html=1;aspect=fixed;" vertex="1" parent="1">
          <mxGeometry x="340" y="20" width="70" height="70" as="geometry" />
        </mxCell>
        <mxCell id="Vfp6eLegOjYmduUzVoi8-10" value="" style="endArrow=none;dashed=1;html=1;dashPattern=1 3;strokeWidth=2;rounded=0;exitX=0.5;exitY=1;exitDx=0;exitDy=0;" edge="1" parent="1" source="Vfp6eLegOjYmduUzVoi8-9">
          <mxGeometry width="50" height="50" relative="1" as="geometry">
            <mxPoint x="500" y="150" as="sourcePoint" />
            <mxPoint x="375" y="520" as="targetPoint" />
          </mxGeometry>
        </mxCell>
        <mxCell id="Vfp6eLegOjYmduUzVoi8-11" value="" style="whiteSpace=wrap;html=1;aspect=fixed;" vertex="1" parent="1">
          <mxGeometry x="450" y="20" width="70" height="70" as="geometry" />
        </mxCell>
        <mxCell id="Vfp6eLegOjYmduUzVoi8-12" value="" style="endArrow=none;dashed=1;html=1;dashPattern=1 3;strokeWidth=2;rounded=0;exitX=0.5;exitY=1;exitDx=0;exitDy=0;" edge="1" parent="1" source="Vfp6eLegOjYmduUzVoi8-11">
          <mxGeometry width="50" height="50" relative="1" as="geometry">
            <mxPoint x="610" y="150" as="sourcePoint" />
            <mxPoint x="485" y="520" as="targetPoint" />
          </mxGeometry>
        </mxCell>
      </root>
    </mxGraphModel>
  </diagram>
</mxfile>
